PathFileType	4	(X/Y/Z)	C:/Users/beibeiliu/ov580/test_trc/User1\sequence.1_training_dense_right.trc
DataRate	CameraRate	NumFrames	NumMarkers	Units	OrigDataRate	OrigDataStartFrame	OrigNumFrames
120	120	12	19	mm	120	1	294
Frame#	Time	ThumbCMC			ThumbMCP			ThumbIP			ThumbTip			IndexMCP			IndexPIP			IndexTip			MiddleMCP			MiddlePIP			MiddleTip			RingMCP			RingPIP			RingTip			PinkyMCP			PinkyPIP			PinkyTip			BackHand1			BackHand2			BackHand3	
		X0	Y0	Z0	X1	Y1	Z1	X2	Y2	Z2	X3	Y3	Z3	X4	Y4	Z4	X5	Y5	Z5	X6	Y6	Z6	X7	Y7	Z7	X8	Y8	Z8	X9	Y9	Z9	X10	Y10	Z10	X11	Y11	Z11	X12	Y12	Z12	X13	Y13	Z13	X14	Y14	Z14	X15	Y15	Z15	X16	Y16	Z16	X17	Y17	Z17	X18	Y18	Z18	
0	0	109.497	27.9353	87.6699	78.8442	24.7426	72.3684	62.0443	22.2593	49.3278	46.6617	18.0587	34.2658	117.185	34.7663	-0.550335	114.249	30.326	-30.6677	110.998	25.3747	-53.1216	149.459	34.2949	-9.04371	145.305	30.6436	-37.9871	148.751	20.4789	-68.7032	171.388	26.5628	-2.41559	174.884	24.162	-32.0566	178.883	13.6099	-58.4553	192.395	9.88351	15.9633	203.871	7.16096	-1.33696	215.35	9.3676	-19.7297	169.846	34.0507	52.1323	172.438	40.6635	86.8356	137.898	44.2353	70.8327	
1	0.00833333	106.93	28.4271	83.597	83.0432	22.7573	72.9053	63.5693	21.8824	48.0429	44.5131	17.8064	37.8614	116.767	33.7217	-0.0574281	111.824	31.9754	-29.5138	113.883	24.0187	-56.3484	145.336	34.42	-7.7246	144.036	30.0868	-41.612	147.582	20.7465	-70.4459	168.874	26.8879	-4.71633	178.413	22.9627	-28.5583	176.931	13.8224	-57.8778	191.191	9.39609	16.5547	204.172	6.80923	-2.35892	212.347	9.07776	-24.8052	169.276	33.2017	52.3969	172.468	39.2123	86.5111	137.05	44.9525	68.0217	
2	0.0166667	106.692	28.7454	89.1302	82.9261	23.0098	70.4536	62.6199	22.4109	49.297	47.4053	18.1847	35.5615	117.395	33.8173	-0.462533	111.648	32.0996	-25.484	115.069	24.8269	-52.9451	145.842	34.6204	-12.5752	144.233	30.5862	-40.9013	148.294	19.9955	-71.4892	171.833	26.3924	-2.83001	174.554	23.9885	-28.4795	177.609	13.501	-56.1495	192.212	10.7513	15.5316	203.224	6.22686	0.322882	211.768	9.62001	-20.5669	170.393	33.5507	51.5024	175.629	39.8845	83.8149	139.489	45.398	69.5515	
3	0.025	105.393	29.3507	86.1993	81.1013	23.8356	73.4876	63.0542	22.5321	47.6213	44.9329	17.964	35.0741	115.604	34.371	1.41581	111.711	31.3049	-29.857	116.237	24.1915	-54.7684	150.029	34.0615	-10.4003	148.369	29.2338	-41.8821	150.749	18.6953	-69.3804	170.749	27.7143	-4.49268	176.413	23.7872	-32.4547	176.481	13.2702	-56.7819	191.873	10.5663	16.788	201.464	6.68919	1.83461	214.737	9.17644	-23.2233	167.969	35.6783	51.6141	174.087	37.9549	86.7443	135.526	44.8748	66.2664	
4	0.0333333	104.518	30.2449	85.2904	82.0158	23.6466	72.3929	63.1222	22.5112	49.2801	45.9796	17.1367	33.8101	117.25	34.1198	-2.3073	112.092	31.9834	-26.6445	116.719	23.1301	-53.6641	145.502	34.7264	-6.93539	146.148	28.609	-41.4031	147.802	20.209	-67.6582	169.792	26.0996	0.598442	173.57	23.4828	-32.9013	176.933	13.4335	-58.1882	192.524	9.31981	20.0038	203.833	7.01196	-2.03812	214.686	8.05294	-23.13	168.771	34.3792	55.08	177.145	39.2512	86.7435	141.117	43.7418	69.9749	
5	0.0416667	104.978	28.9928	83.996	83.7416	22.1015	71.1439	65.7203	20.0293	52.7085	47.8549	15.9657	36.6663	114.415	33.3085	-0.638055	116.049	29.8973	-29.3906	110.6	23.5178	-56.3473	148.01	33.8506	-7.24548	148.762	29.2755	-38.1298	147.227	20.0613	-66.1285	169.207	26.5321	-3.08958	176.664	23.4678	-29.7213	174.608	13.4303	-54.3309	195.007	8.78129	17.022	201.184	7.48443	0.746759	217.187	9.40576	-23.1512	172.811	32.5912	52.0315	174.182	38.1152	83.9849	140.579	43.3936	65.9686	
6	0.05	107.287	27.6741	84.0643	81.0126	23.4282	72.8093	61.1247	21.9183	50.8133	44.3852	16.1576	38.1655	115.847	33.1587	-1.34809	110.908	30.742	-29.7395	115.882	22.2505	-55.7249	145.541	34.758	-8.87119	146.464	29.204	-38.6984	147.791	18.4685	-68.4489	173.474	26.209	-3.00744	177.745	22.8082	-30.2186	178.209	12.7597	-54.6512	191.748	9.34118	18.289	205.401	5.0685	-0.442391	216.976	8.37965	-23.8467	169.714	34.4556	54.5559	172.152	38.3685	85.9914	138.462	43.2239	66.4313	
7	0.0583333	106.546	27.5253	88.2487	81.1944	23.0825	72.1714	62.4438	21.14	51.3408	44.2276	16.862	36.0704	114.017	34.0869	-1.69972	113.869	29.1955	-31.8241	113.256	22.1996	-58.4265	147.73	33.3166	-10.7152	146.857	28.4397	-40.4518	150.698	16.4084	-72.5752	174.083	24.6246	-3.83707	178.875	21.6378	-31.4998	175.777	13.6349	-55.1042	191.86	9.266	19.5687	201.589	6.28693	1.61202	216.781	9.43433	-20.8466	169.106	35.1393	50.0208	173.126	38.7326	87.5471	136.558	44.1321	69.3218	
8	0.0666667	108.461	27.1114	83.2784	81.1975	22.9119	72.9709	64.8079	20.6488	52.857	45.1368	16.2772	38.5471	116.031	33.1372	-2.58289	112.901	30.9196	-29.771	115.173	23.0754	-53.5536	148.573	33.8473	-8.94608	147.948	27.9239	-42.1277	148.42	18.8562	-66.3203	170.605	26.2762	0.339051	175.348	22.9733	-28.456	177.442	12.8388	-57.4254	193.821	9.2291	18.6798	201.798	6.20669	-0.904863	216.452	7.42324	-17.7822	173.453	34.3806	51.8281	176.149	37.7103	84.6216	140.083	42.5762	70.2332	
9	0.075	106.826	28.1489	89.0763	80.6245	22.3502	72.9519	63.466	21.4055	53.7715	44.5072	17.6686	37.3283	117.873	33.588	-1.93556	111.347	30.9979	-25.4763	113.593	22.2646	-55.5332	144.976	35.0459	-11.1386	146.921	28.5274	-41.2162	147.11	20.5364	-66.6925	171.33	26.4201	0.691771	174.062	23.6204	-28.0769	175.596	13.7197	-55.2461	195.603	8.90309	19.4941	202.659	6.83084	0.468916	212.826	10.9433	-20.6224	167.92	32.8256	54.9838	175.499	37.1479	83.9796	141.834	44.1172	71.3029	
10	0.0833333	108.947	27.8573	85.2283	78.9186	24.3091	71.2822	60.2149	21.8396	52.7719	44.7073	16.7992	35.4983	115.698	33.9031	1.68539	110.718	30.5612	-29.672	116.53	23.3489	-53.4801	147.275	33.6754	-10.3944	149.537	29.4431	-37.7334	149.233	19.2775	-67.1439	173.108	26.1081	-3.10204	175.768	23.557	-29.1104	176.482	13.4894	-55.206	195.706	7.83065	19.0663	202.007	6.56332	0.0208124	214.584	10.4192	-23.711	168.371	33.2271	56.2557	174.616	39.0276	87.6398	140.45	41.8187	71.3605	
11	0.0916667	107.928	26.892	89.2025	84.3117	22.0507	71.2049	61.4101	21.7227	48.2657	43.0247	17.4388	33.7192	113.92	33.463	-1.12683	113.22	30.591	-29.5556	113.798	22.7585	-56.3886	144.722	34.1011	-7.62131	147.849	29.5234	-39.7525	146.119	20.6282	-68.3621	172.442	26.5463	-2.70355	176.766	22.8072	-29.1518	175.395	12.3156	-57.4631	192.556	9.71683	14.137	204.521	6.63465	-2.56859	215.702	8.72157	-22.1548	170.517	33.1685	50.6021	173.919	37.9781	85.6295	136.37	42.4692	67.0966	
